{"title":"Extracted 2012 DVDRip 350MB x264 AAC - ViZNU [P2PDL]","uid":7859856,"size":387331803,"categoryP":"video","categoryS":"movies","magnet":"?xt=urn:btih:9c0320b5694a10b93cc2e98f329deb2902bfc85d&amp;dn=Extracted+2012+DVDRip+350MB+x264+AAC+-+ViZNU+%5BP2PDL%5D&amp;tr=udp%3A%2F%2Ftracker.openbittorrent.com%3A80&amp;tr=udp%3A%2F%2Fopen.demonii.com%3A1337&amp;tr=udp%3A%2F%2Ftracker.coppersurfer.tk%3A6969&amp;tr=udp%3A%2F%2Fexodus.desync.com%3A6969","seeders":0,"leechers":2,"uploader":"ValidusVyto","files":-1,"time":1353895099,"description":"_________________________  Visit us at _________________________\n  &lt;a href=&quot;\nhttp://tinym.eu&quot; rel=&quot;nofollow&quot; target=&quot;_NEW&quot;&gt;\nhttp://tinym.eu&lt;/a&gt;  ____________________________ &lt;a href=&quot; http://p2pdl.com&quot; rel=&quot;nofollow&quot; target=&quot;_NEW&quot;&gt; http://p2pdl.com&lt;/a&gt;\n\n\nExtracted 2012 DVDRip 350MB x264 AAC - ViZNU [P2PDL]\n\n\t\t\t\t\t\nGenre:  Drama | Sci-Fi \nPlot: A scientist who has invented a technique to watch people's memories finds himself in a dangerous\nsituation after he's tasked with entering a heroin addict's mind to see whether the man committed murder.    \nDirector: Nir Paniry\nStars: Sasha Roiz, Jenny Mollen and Dominic Bogart. &lt;a href=&quot;\nhttp://cinemahouse.in/movie/230/Extracted&quot; rel=&quot;nofollow&quot; target=&quot;_NEW&quot;&gt;\nhttp://cinemahouse.in/movie/230/Extracted&lt;/a&gt;\n\n\nGeneral\nMovie name                     : Extracted 2012\nFormat                         : MPEG-4\nFormat profile                 : Base Media\nCodec ID                       : isom\nFile size                      : 352 MiB\nDuration                       : 1h 25mn\nOverall bit rate mode          : Variable\nOverall bit rate               : 578 Kbps\nSource                         :\n\nVideo\nID                             : 1\nFormat                         : AVC\nFormat/Info                    : Advanced Video Codec\nCodec ID                       : avc1\nCodec ID/Info                  : Advanced Video Coding\nDuration                       : 1h 25mn\nBit rate                       : 535 Kbps\nMaximum bit rate               : 4 791 Kbps\nWidth                          : 720 pixels\nHeight                         : 304 pixels\nDisplay aspect ratio           : 2.35:1\nFrame rate mode                : Constant\nFrame rate                     : 25.000 fps\nStream size                    : 326 MiB (92%)\nWriting library                : x264 core 125 r2208 d9d2288\n\n\nAudio\nID                             : 2\nFormat                         : AAC\nFormat/Info                    : Advanced Audio Codec\nFormat profile                 : HE-AAC / LC\nCodec ID                       : 40\nDuration                       : 1h 25mn\nBit rate mode                  : Variable\nBit rate                       : 40.0 Kbps\nMaximum bit rate               : 51.0 Kbps\nChannel(s)                     : 2 channels\nChannel positions              : Front: L R\nSampling rate                  : 44.1 KHz / 22.05 KHz\nStream size                    : 24.4 MiB (7%)\nLanguage                       : English\n\n\n\n\nScreens:\n &lt;a href=&quot;\nhttp://www.shotpix.com/images/26463120558870647594.png&quot; rel=&quot;nofollow&quot; target=&quot;_NEW&quot;&gt;\nhttp://www.shotpix.com/images/26463120558870647594.png&lt;/a&gt; &lt;a href=&quot;\nhttp://www.shotpix.com/images/05856076286502827697.png&quot; rel=&quot;nofollow&quot; target=&quot;_NEW&quot;&gt;\nhttp://www.shotpix.com/images/05856076286502827697.png&lt;/a&gt; &lt;a href=&quot;\nhttp://www.shotpix.com/images/84729607972620490348.png&quot; rel=&quot;nofollow&quot; target=&quot;_NEW&quot;&gt;\nhttp://www.shotpix.com/images/84729607972620490348.png&lt;/a&gt; &lt;a href=&quot;\nhttp://www.shotpix.com/images/91071032165923423149.png&quot; rel=&quot;nofollow&quot; target=&quot;_NEW&quot;&gt;\nhttp://www.shotpix.com/images/91071032165923423149.png&lt;/a&gt; &lt;a href=&quot;\nhttp://www.shotpix.com/images/03790962622614687299.png&quot; rel=&quot;nofollow&quot; target=&quot;_NEW&quot;&gt;\nhttp://www.shotpix.com/images/03790962622614687299.png&lt;/a&gt; &lt;a href=&quot;\nhttp://www.shotpix.com/images/06367433753740252928.png&quot; rel=&quot;nofollow&quot; target=&quot;_NEW&quot;&gt;\nhttp://www.shotpix.com/images/06367433753740252928.png&lt;/a&gt;\n\n\n----------------------------------------------------------------------------------------------------\n\n\nRecommend to you to use latest version of VLC player. Install K-Lite Codec Pack or shark007 codecs\nin case of any kind of problem in playback (For non-VLC Media Player users). Alternatively, install\nCore AVC codecs, the fastest decoder that there is coupled with Community Center Codec Pack and play\non Windows Media Player Classic. Check sample to be sure.\nEnjoy!\n\n\nGreets to: Vitamin_X, a2zRG, srkfan, staff members at ExtraTorrent, TPB,KAT, 1337x, PublicHD,\nAhashare, BTScene, TorrentMafia, P2PDL, and all others.\n\n\nEncoder Notes: Looking For Early Access To Anything You Can Provide DVDScr, R5, DVDR, BluRay, Direct\nAudio, Early Music Releases, Seedboxes, Dedicated Servers anything u can provide, Advance / Promo CDs/\nDVDs. If You Got anything to offer contact me at &quot;&lt;a class=&quot;__cf_email__&quot; href=&quot;/cdn-cgi/l/email-protection&quot; data-cfemail=&quot;76060411361e03051e5815191b&quot;&gt;[email&amp;#160;protected]&lt;/a&gt;&lt;script cf-hash='f9e31' type=&quot;text/javascript&quot;&gt;\n/* &lt;![CDATA[ */!function(){try{var t=&quot;currentScript&quot;in document?document.currentScript:function(){for(var t=document.getElementsByTagName(&quot;script&quot;),e=t.length;e--;)if(t[e].getAttribute(&quot;cf-hash&quot;))return t[e]}();if(t&amp;&amp;t.previousSibling){var e,r,n,i,c=t.previousSibling,a=c.getAttribute(&quot;data-cfemail&quot;);if(a){for(e=&quot;&quot;,r=parseInt(a.substr(0,2),16),n=2;a.length-n;n+=2)i=parseInt(a.substr(n,2),16)^r,e+=String.fromCharCode(i);e=document.createTextNode(e),c.parentNode.replaceChild(e,c)}}}catch(u){}}();/* ]]&gt; */&lt;/script&gt;&quot;.\n\n\nFacebook Fan Page: www . facebook . com / p2pdl\n","torrent":{"xt":"urn:btih:9c0320b5694a10b93cc2e98f329deb2902bfc85d","amp;dn":"Extracted+2012+DVDRip+350MB+x264+AAC+-+ViZNU+%5BP2PDL%5D","amp;tr":["udp%3A%2F%2Ftracker.openbittorrent.com%3A80","udp%3A%2F%2Fopen.demonii.com%3A1337","udp%3A%2F%2Ftracker.coppersurfer.tk%3A6969","udp%3A%2F%2Fexodus.desync.com%3A6969"],"infoHash":"9c0320b5694a10b93cc2e98f329deb2902bfc85d","infoHashBuffer":{"type":"Buffer","data":[156,3,32,181,105,74,16,185,60,194,233,143,50,157,235,41,2,191,200,93]},"announce":[],"urlList":[]}}